<svg width="58" height="50" viewBox="0 0 58 50" fill="none" xmlns="http://www.w3.org/2000/svg">
<g id="Image icon">
<g id="Image icon_2">
<path d="M29.1704 49.8165C20.9175 49.8165 12.6646 49.8165 4.41173 49.8165C4.00859 49.8165 3.60023 49.8165 3.19535 49.7748C1.12923 49.5819 0.298614 48.19 1.17962 46.3081C1.94421 44.6833 2.7783 43.1003 3.58807 41.4929C7.41099 33.9247 11.2339 26.3576 15.0568 18.7917C15.175 18.5606 15.2984 18.3295 15.4357 18.1088C16.3983 16.5657 17.9623 16.3485 19.1943 17.6796C20.0631 18.611 20.7982 19.6571 21.5732 20.6667C25.512 25.8137 29.4507 30.9631 33.3895 36.1148C35.1098 38.3564 37.2767 38.478 39.2977 36.4623C40.3003 35.4614 41.2804 34.4344 42.2952 33.4422C44.125 31.6524 46.2015 31.7601 47.6959 33.8471C50.6952 38.0349 53.6197 42.2784 56.5582 46.5079C56.7878 46.8397 56.9637 47.2057 57.0795 47.5922C57.3645 48.5636 56.9613 49.3456 55.976 49.6045C55.3582 49.7524 54.724 49.8207 54.0889 49.8078C45.7874 49.8217 37.4812 49.8246 29.1704 49.8165Z" fill="#9A9A9B"/>
<path d="M47.6785 8.34645C47.6764 9.96184 47.1947 11.5402 46.2945 12.8815C45.3942 14.2228 44.116 15.2665 42.6218 15.8805C41.1276 16.4944 39.4848 16.6509 37.9016 16.33C36.3184 16.0091 34.8661 15.2254 33.7289 14.0782C32.5917 12.9309 31.8207 11.4718 31.5137 9.88588C31.2067 8.29994 31.3776 6.65855 32.0046 5.16981C32.6316 3.68108 33.6865 2.41203 35.0356 1.52358C36.3847 0.635118 37.9673 0.167253 39.5826 0.179296C41.7336 0.206631 43.7877 1.07811 45.3022 2.60587C46.8166 4.13362 47.67 6.1953 47.6785 8.34645Z" fill="#9A9A9B"/>
</g>
</g>
</svg>
